<svg id="Layer_1" data-name="Layer 1" xmlns="http://www.w3.org/2000/svg" viewBox="0 0 68 68"><defs><style>.cls-2{clip-path:url(#clip-path)}.cls-3{fill:#fff}</style><clipPath id="clip-path"><path fill="none" d="M0 0h68v68H0z"/></clipPath></defs><g class="cls-2" id="White_badge" data-name="White badge"><g class="cls-2"><path class="cls-3" d="M28.42 32.94a6.64 6.64 0 1 0 6.64 6.64 6.65 6.65 0 0 0-6.64-6.64"/><path class="cls-3" d="M34 0C6.8 0 0 6.8 0 34s6.8 34 34 34 34-6.8 34-34S61.2 0 34 0m-5.58 52.59a13 13 0 1 1 13-13 13 13 0 0 1-13 13m23.64-.53h-6.37V22.31H15.94v-6.37h36.12z"/></g></g></svg>